<?xml version="1.0" encoding="UTF-8" standalone="no"?>
<svg
   class="ionicon"
   viewBox="0 0 512 512"
   version="1.1"
   id="svg4"
   sodipodi:docname="download.svg"
   inkscape:version="1.2.2 (b0a8486541, 2022-12-01)"
   xmlns:inkscape="http://www.inkscape.org/namespaces/inkscape"
   xmlns:sodipodi="http://sodipodi.sourceforge.net/DTD/sodipodi-0.dtd"
   xmlns="http://www.w3.org/2000/svg"
   xmlns:svg="http://www.w3.org/2000/svg">
  <defs
     id="defs8" />
  <sodipodi:namedview
     id="namedview6"
     pagecolor="#505050"
     bordercolor="#ffffff"
     borderopacity="1"
     inkscape:showpageshadow="0"
     inkscape:pageopacity="0"
     inkscape:pagecheckerboard="1"
     inkscape:deskcolor="#505050"
     showgrid="false"
     inkscape:zoom="1.6152344"
     inkscape:cx="255.69045"
     inkscape:cy="256.30955"
     inkscape:window-width="1920"
     inkscape:window-height="1007"
     inkscape:window-x="0"
     inkscape:window-y="0"
     inkscape:window-maximized="1"
     inkscape:current-layer="svg4" />
  <path
     fill="none"
     stroke="currentColor"
     stroke-linecap="round"
     stroke-linejoin="round"
     stroke-width="42"
     d="M160 368L32 256l128-112M352 368l128-112-128-112M192 288.1l64 63.9 64-63.9M256 160v176.03"
     id="path2" />
  <path
     style="fill:#ffffff;stroke-width:0.619105"
     d="m 154.46675,387.9454 c -0.85127,-0.27959 -2.66216,-1.07898 -4.02419,-1.77642 -2.58891,-1.32568 -131.03962,-113.4091 -134.437134,-117.30706 -5.934747,-6.8089 -5.934747,-18.91494 0,-25.72384 3.839082,-4.40456 131.968104,-116.04479 135.056244,-117.67599 2.71751,-1.43542 3.81377,-1.6351 8.97702,-1.6351 5.18024,0 6.25059,0.19643 8.97703,1.64744 6.88196,3.6626 10.87258,9.79105 11.32661,17.39447 0.31839,5.33191 -0.63809,8.84726 -3.52646,12.96086 -0.88501,1.26042 -26.73454,24.2447 -57.44342,51.07618 C 88.663572,233.73742 63.538127,255.82975 63.538127,256 c 0,0.17025 25.125445,22.26258 55.834323,49.09406 30.70888,26.83148 56.55841,49.81576 57.44342,51.07618 2.88837,4.1136 3.84485,7.62895 3.52646,12.96086 -0.33638,5.63306 -1.81162,9.03524 -5.66463,13.06371 -3.97377,4.15471 -7.8013,5.84997 -13.71035,6.07245 -2.72406,0.10257 -5.64933,-0.0423 -6.5006,-0.32186 z"
     id="path183" />
  <path
     style="fill:#ffffff;stroke-width:0.619105"
     d="m 249.04287,371.48405 c -1.27262,-0.48366 -3.5014,-1.70856 -4.95284,-2.72202 -1.45145,-1.01347 -17.7085,-16.97896 -36.12678,-35.47889 -37.6167,-37.78346 -36.35765,-36.22488 -36.4244,-45.08967 -0.029,-3.85174 0.26856,-5.30265 1.74555,-8.51114 4.77444,-10.37162 16.94974,-15.04728 26.8652,-10.317 3.13486,1.49552 6.3695,4.36132 18.98033,16.81605 8.36082,8.25731 15.4767,15.0133 15.81308,15.0133 0.39839,0 0.66816,-25.62971 0.77384,-73.51874 l 0.16223,-73.51875 1.51532,-3.07938 c 1.93276,-3.92766 5.71706,-7.71196 9.64472,-9.64471 2.61185,-1.28526 3.97234,-1.51532 8.96088,-1.51532 4.98854,0 6.34903,0.23006 8.96088,1.51532 3.92766,1.93275 7.71196,5.71705 9.64472,9.64471 l 1.51532,3.07938 0.16223,73.51875 c 0.12785,57.93767 0.32466,73.51736 0.92866,73.51221 0.42153,-0.004 7.58538,-6.81943 15.91966,-15.14632 13.0105,-12.99898 15.67924,-15.37587 18.87318,-16.80922 10.01769,-4.49567 21.9865,0.18671 26.71095,10.44972 1.46911,3.19139 1.77877,4.68785 1.77054,8.55636 -0.0189,8.90366 0.73127,7.98479 -38.18002,46.76245 -26.89821,26.80583 -34.89686,34.43298 -37.32909,35.59534 -3.81038,1.82097 -12.24229,2.29064 -15.93416,0.88757 z"
     id="path185" />
  <path
     style="fill:#ffffff;stroke-width:0.619105"
     d="m 346.38936,387.9454 c -5.36821,-1.76313 -10.49273,-6.17271 -13.03903,-11.21989 -1.9637,-3.89236 -2.38857,-11.3161 -0.87754,-15.33323 0.60623,-1.6117 1.82633,-3.96162 2.71134,-5.22204 0.885,-1.26042 26.73454,-24.2447 57.44342,-51.07618 30.70888,-26.83148 55.83432,-48.92381 55.83432,-49.09406 0,-0.17025 -25.12544,-22.26258 -55.83432,-49.09406 -30.70888,-26.83148 -56.55842,-49.81576 -57.44342,-51.07618 -2.88837,-4.1136 -3.84485,-7.62895 -3.52646,-12.96086 0.45404,-7.60342 4.44465,-13.73187 11.32661,-17.39447 2.72644,-1.45101 3.79679,-1.64744 8.97703,-1.64744 5.16325,0 6.25952,0.19968 8.97702,1.6351 3.08813,1.6312 131.21716,113.27143 135.05625,117.67599 2.67636,3.07057 4.55197,8.37026 4.55197,12.86192 0,4.49166 -1.87561,9.79135 -4.55197,12.86192 -3.98887,4.57641 -131.97441,116.04791 -135.05625,117.62987 -2.40629,1.23519 -4.1983,1.63051 -8.04837,1.77547 -2.72406,0.10257 -5.64933,-0.0423 -6.5006,-0.32186 z"
     id="path187" />
</svg>
