<?xml version="1.0" encoding="UTF-8" standalone="no"?>
<svg
   role="img"
   viewBox="0 0 24 24"
   version="1.1"
   id="svg6"
   sodipodi:docname="git.svg"
   inkscape:version="1.2.2 (b0a8486541, 2022-12-01)"
   xmlns:inkscape="http://www.inkscape.org/namespaces/inkscape"
   xmlns:sodipodi="http://sodipodi.sourceforge.net/DTD/sodipodi-0.dtd"
   xmlns="http://www.w3.org/2000/svg"
   xmlns:svg="http://www.w3.org/2000/svg">
  <defs
     id="defs10" />
  <sodipodi:namedview
     id="namedview8"
     pagecolor="#505050"
     bordercolor="#ffffff"
     borderopacity="1"
     inkscape:showpageshadow="0"
     inkscape:pageopacity="0"
     inkscape:pagecheckerboard="1"
     inkscape:deskcolor="#505050"
     showgrid="false"
     inkscape:zoom="32"
     inkscape:cx="12"
     inkscape:cy="12.03125"
     inkscape:window-width="1920"
     inkscape:window-height="1007"
     inkscape:window-x="0"
     inkscape:window-y="0"
     inkscape:window-maximized="1"
     inkscape:current-layer="svg6" />
  <title
     id="title2">Git</title>
  <path
     d="M23.546 10.93L13.067.452c-.604-.603-1.582-.603-2.188 0L8.708 2.627l2.76 2.76c.645-.215 1.379-.07 1.889.441.516.515.658 1.258.438 1.9l2.658 2.66c.645-.223 1.387-.078 1.9.435.721.72.721 1.884 0 2.604-.719.719-1.881.719-2.6 0-.539-.541-.674-1.337-.404-1.996L12.86 8.955v6.525c.176.086.342.203.488.348.713.721.713 1.883 0 2.6-.719.721-1.889.721-2.609 0-.719-.719-.719-1.879 0-2.598.182-.18.387-.316.605-.406V8.835c-.217-.091-.424-.222-.6-.401-.545-.545-.676-1.342-.396-2.009L7.636 3.7.45 10.881c-.6.605-.6 1.584 0 2.189l10.48 10.477c.604.604 1.582.604 2.186 0l10.43-10.43c.605-.603.605-1.582 0-2.187"
     id="path4" />
  <path
     style="fill:#ffffff;stroke-width:0.0290206"
     d="M 11.67047,23.939521 C 11.240546,23.835447 11.582609,24.158898 5.7405763,18.332293 2.0358994,14.637399 0.33468804,12.921579 0.26458996,12.809284 0.04715994,12.460965 -0.03295311,12.016537 0.05462468,11.644498 0.16289238,11.184566 -0.06723841,11.434463 3.9565953,7.4073823 l 3.6755042,-3.6784701 1.3481131,1.3481134 1.3481134,1.3481131 -0.05477,0.1683256 c -0.07766,0.2386595 -0.09339,0.7247527 -0.03135,0.9683692 0.134922,0.5297479 0.507274,1.0019536 0.966984,1.2263005 l 0.123337,0.060191 V 12.131 15.413676 L 11.2237,15.46541 c -0.196181,0.09326 -0.467172,0.30576 -0.603775,0.473455 -0.285443,0.350412 -0.423344,0.746115 -0.42152,1.209539 0.002,0.51599 0.168404,0.912999 0.537128,1.281722 0.370333,0.370333 0.785132,0.542315 1.307998,0.542315 0.523498,0 0.938603,-0.172255 1.306829,-0.542293 0.368125,-0.369936 0.534647,-0.77295 0.535547,-1.296123 0.0011,-0.630542 -0.297083,-1.203043 -0.794447,-1.525388 l -0.217064,-0.140681 -0.0019,-3.231313 -0.0019,-3.2313125 1.231199,1.2096415 1.2312,1.209642 -0.03884,0.110097 c -0.12026,0.340853 -0.119184,0.775554 0.0029,1.161782 0.402764,1.27445 2.017471,1.702131 2.998204,0.794122 0.253488,-0.234692 0.39735,-0.45152 0.503065,-0.758221 0.354069,-1.027223 -0.234397,-2.12899 -1.282123,-2.400483 -0.227162,-0.05886 -0.686781,-0.06032 -0.901926,-0.0029 L 16.454662,10.371641 15.130806,9.0494876 13.80695,7.7273343 13.85067,7.5927901 c 0.0283,-0.087082 0.04406,-0.2522757 0.04467,-0.468281 8.27e-4,-0.2917752 -0.0094,-0.364212 -0.0814,-0.5761227 C 13.579337,5.8579067 13.0185,5.3959696 12.294358,5.2968209 12.0709,5.2662251 11.868904,5.2780101 11.550181,5.3402383 11.467288,5.3564224 11.39781,5.2918392 10.099153,3.9914232 L 8.7351874,2.6256095 9.91052,1.4537068 c 1.005229,-1.00229591 1.20154,-1.18498378 1.356413,-1.26228616 0.469861,-0.23452323 0.965307,-0.23028391 1.426568,0.0122065 0.171785,0.0903095 0.752498,0.66189732 5.608637,5.52050316 4.868145,4.8706187 5.426136,5.4381407 5.507068,5.6011407 0.24629,0.496036 0.224736,1.034527 -0.06023,1.504716 -0.06197,0.102252 -1.848672,1.907497 -5.463458,5.520165 -5.31425,5.311135 -5.373687,5.369306 -5.589027,5.469946 -0.358922,0.167744 -0.674618,0.20449 -1.026023,0.119423 z"
     id="path185" />
</svg>
